<?xml version="1.0" encoding="UTF-8" standalone="no"?>
<!-- Created with Inkscape (http://www.inkscape.org/) -->
<svg id="svg2" xmlns:rdf="http://www.w3.org/1999/02/22-rdf-syntax-ns#" xmlns="http://www.w3.org/2000/svg" xmlns:osb="http://www.openswatchbook.org/uri/2009/osb" height="128mm" width="128mm" version="1.1" xmlns:cc="http://creativecommons.org/ns#" viewBox="0 0 453.54331 453.54331" xmlns:dc="http://purl.org/dc/elements/1.1/">
 <defs id="defs4">
  <filter id="filter10658" style="color-interpolation-filters:sRGB">
   <feOffset id="feOffset10660" dx="3" dy="3"/>
   <feGaussianBlur id="feGaussianBlur10662" stdDeviation="3" result="blur"/>
   <feFlood id="feFlood10664" result="flood" flood-color="rgb(0,0,0)"/>
   <feComposite id="feComposite10666" operator="in" result="composite" in2="SourceGraphic" in="flood"/>
   <feBlend id="feBlend10668" mode="normal" in2="composite" in="blur"/>
  </filter>
  <filter id="filter10670" style="color-interpolation-filters:sRGB">
   <feOffset id="feOffset10672" dx="3" dy="3"/>
   <feGaussianBlur id="feGaussianBlur10674" stdDeviation="3" result="blur"/>
   <feFlood id="feFlood10676" result="flood" flood-color="rgb(0,0,0)"/>
   <feComposite id="feComposite10678" operator="in" result="composite" in2="SourceGraphic" in="flood"/>
   <feBlend id="feBlend10680" mode="normal" in2="composite" in="blur"/>
  </filter>
  <filter id="filter10682" style="color-interpolation-filters:sRGB">
   <feOffset id="feOffset10684" dx="3" dy="3"/>
   <feGaussianBlur id="feGaussianBlur10686" stdDeviation="3" result="blur"/>
   <feFlood id="feFlood10688" result="flood" flood-color="rgb(0,0,0)"/>
   <feComposite id="feComposite10690" operator="in" result="composite" in2="SourceGraphic" in="flood"/>
   <feBlend id="feBlend10692" mode="normal" in2="composite" in="blur"/>
  </filter>
  <filter id="filter10694" style="color-interpolation-filters:sRGB">
   <feOffset id="feOffset10696" dx="3" dy="3"/>
   <feGaussianBlur id="feGaussianBlur10698" stdDeviation="3" result="blur"/>
   <feFlood id="feFlood10700" result="flood" flood-color="rgb(0,0,0)"/>
   <feComposite id="feComposite10702" operator="in" result="composite" in2="SourceGraphic" in="flood"/>
   <feBlend id="feBlend10704" mode="normal" in2="composite" in="blur"/>
  </filter>
 </defs>
 <metadata id="metadata7">
  <rdf:RDF>
   <cc:Work rdf:about="">
    <dc:format>image/svg+xml</dc:format>
    <dc:type rdf:resource="http://purl.org/dc/dcmitype/StillImage"/>
    <dc:title/>
   </cc:Work>
  </rdf:RDF>
 </metadata>
 <g id="layer1" transform="translate(0 -598.82)">
  <g id="text21052" filter="url(#filter10658)" fill="#367484">
   <path id="path15898" fill="#367484" d="m12.623 711.41h22.86c29.7 0 36.9-0.54 46.44-3.96 14.4-4.86 29.16-14.22 36.18-22.86 9.18-11.34 15.66-30.24 15.66-45.54 0-12.42-6.48-21.78-18.72-27.18-7.74-3.42-16.92-4.86-34.38-5.94l1.26-5.04-12.96 5.4c-14.76 2.52-24.12 5.76-33.66 11.88-15.3 9.9-22.68 21.96-22.68 37.26 0 3.42 0.18 5.58 1.26 10.26l14.76-6.66c-1.08-4.68-1.26-6.84-1.26-10.08 0-21.42 13.32-34.02 38.52-36.54l-13.5 53.64c-7.02 30.06-11.7 35.64-31.14 37.08l-8.64 8.28zm66.6-99.9c13.14 0.54 19.26 1.62 24.84 4.5 8.82 4.68 14.04 14.58 14.04 26.64 0 15.48-5.94 34.74-14.04 45-8.82 11.34-19.44 15.66-37.98 15.66h-2.7l-23.04-0.72c20.88-19.44 20.88-19.44 28.98-52.02l9.9-39.06z"/>
  </g>
  <g font-family="&apos;URW Palladio L&apos;" font-weight="bold" font-style="italic" fill="#000000">
   <text id="text21072" style="word-spacing:0px;letter-spacing:0px;writing-mode:lr" xml:space="preserve" font-size="50px" line-height="125%" y="665.69537" x="139.99998"><tspan id="tspan21074" x="139.99998" y="665.69537">igital</tspan></text>
   <text id="text21076" style="word-spacing:0px;letter-spacing:0px;writing-mode:lr" xml:space="preserve" font-size="50px" line-height="125%" y="761.88574" x="131.42857"><tspan id="tspan21114" x="131.42857" y="761.88574">ibrary of </tspan></text>
   <text id="text21080" style="word-spacing:0px;letter-spacing:0px" xml:space="preserve" transform="scale(.92988 1.0754)" line-height="125%" font-size="46.494px" y="810.30438" x="235.88623"><tspan id="tspan21116" x="235.88623" y="810.30438">athematical </tspan></text>
   <text id="text21084" style="word-spacing:0px;letter-spacing:0px;writing-mode:lr" xml:space="preserve" font-size="50px" line-height="125%" y="988.55249" x="227.61905"><tspan id="tspan21174" x="227.61905" y="988.55249">unctions </tspan></text>
  </g>
  <g fill="#367484">
   <g id="text21158" filter="url(#filter10670)">
    <path id="path15895" style="" d="m131 700.47c-3.6-0.36-5.4-0.54-7.92-0.54-3.42 0-6.48 0.36-9.54 1.08-4.86 1.26-13.5 7.38-20.7 14.58-8.82 9-11.88 17.28-18.9 50.76-4.86 23.04-9.54 29.7-20.88 29.7-1.44 0-3.6 0-5.58-0.18-2.52 2.52-3.6 3.78-6.3 7.2 8.64-0.36 13.14-0.54 17.64-0.54 4.68 0 13.86 0.36 27.54 0.9 29.52 1.44 30.78 1.44 35.46 1.44 9.36 0 13.32-1.98 16.56-8.64 2.16-4.14 7.74-16.56 10.44-23.4l-1.98-3.42c-11.7 24.66-13.68 25.74-44.64 25.56h-34.02l4.86-4.68c9.54-8.82 10.8-11.16 15.3-29.88 5.22-22.32 7.74-32.22 10.08-39.24 2.7-7.56 7.38-10.98 14.94-10.98 2.34 0 3.96 0 10.62 0.36l7.02-10.08z"/>
   </g>
   <g id="text21162" filter="url(#filter10682)">
    <path id="path15892" style="" d="m79.964 916.17c3.24 0.18 5.94 0.18 7.74 0.18 14.04 0 23.4-4.14 31.14-13.68 5.76-7.38 7.92-11.88 12.24-26.64 1.98-7.2 8.64-31.68 11.7-44.1 6.3 64.98 6.48 66.42 6.84 80.82l8.82-6.84c6.3-13.5 18.36-32.22 48.06-74.52l-1.8 7.92c-0.54 2.7-1.98 8.1-4.14 16.02-10.44 38.88-12.6 47.16-12.96 48.06-1.44 4.14-2.34 7.92-2.34 10.44s1.98 4.68 4.32 4.68c0.9 0 1.98-0.18 3.42-0.36 1.8-0.36 12.42-2.16 16.92-2.88l8.46-1.08c0.54-0.18 1.98-0.36 4.32-0.72l3.78-4.5c-3.06 0.18-5.94 0.36-6.84 0.54-3.06 0.18-5.94 0.36-7.38 0.36-5.76 0-9-2.7-9-7.2 0-4.68 0.18-5.76 4.86-24.84 7.74-31.32 8.28-33.48 11.7-45.72 7.2-25.02 8.1-27 12.78-27 1.62 0 3.96 0.18 6.3 0.72 0.54 0.18 2.7 0.54 4.86 0.9l7.38-10.08c-3.24-0.9-5.04-1.08-7.2-1.08-4.68 0-8.64 1.44-15.12 5.22-10.08 5.76-11.88 7.38-18.36 16.56l-24.3 33.84-20.34 29.52-4.5 6.48c-2.34-27.36-7.02-67.14-9.36-79.74l-5.58 4.5c-6.84-0.9-10.26-1.08-14.58-1.08-12.06 0-19.26 3.06-27.72 11.88-9.72 9.72-15.48 21.24-15.48 30.42 0 5.22 1.08 9.9 4.14 16.56l13.68-9.54c-4.32-9.36-5.76-13.86-5.76-19.08 0-11.7 8.82-18.18 24.48-18.18 4.14 0 7.02 0.18 12.96 1.08-7.92 32.22-17.64 65.88-20.88 71.64-3.42 6.3-7.92 9-15.66 9-3.06 0-3.06 0-13.32-0.9l-8.28 12.42z"/>
   </g>
   <g id="text21166" opacity="0.93" filter="url(#filter10694)">
    <path id="path15889" style="" d="m194.67 974.86 11.52-46.26 28.8 0.72c2.34-1.98 7.56-5.94 11.34-8.28 0.9-2.16 1.08-2.52 1.8-5.04-7.56 4.68-13.86 6.3-23.94 6.3l-24.12-0.18c-19.44 0-30.78 2.88-40.68 9.9-10.08 7.38-16.2 19.98-16.2 33.12 0 4.32 0.54 7.38 2.34 13.86l15.12-6.84c-2.88-8.46-3.6-12.42-3.6-17.82 0-16.2 10.62-26.28 27.36-26.28 2.16 0 5.22 0.18 8.64 0.54l-11.52 46.26-6.48 8.28h4.5l-4.86 19.26c-7.2 28.8-11.52 33.84-28.62 33.84-2.34 0-5.4-0.18-12.06-0.36l-7.02 11.7c3.78 0.36 7.02 0.54 9 0.54 10.8 0 18.54-3.42 30.42-13.14 13.14-10.62 17.82-18.36 22.14-35.46l4.32-17.28c10.26-0.54 18.72-1.08 19.26-1.26 5.04-0.72 6.48-1.62 10.98-6.12h-28.44z"/>
   </g>
  </g>
 </g>
</svg>
